<svg width="18" height="12" viewBox="0 0 18 12" fill="none" xmlns="http://www.w3.org/2000/svg">
<path fill-rule="evenodd" clip-rule="evenodd" d="M0 0.75C0 0.335786 0.335786 0 0.75 0H16.75C17.1642 0 17.5 0.335786 17.5 0.75C17.5 1.16421 17.1642 1.5 16.75 1.5H0.75C0.335786 1.5 0 1.16421 0 0.75ZM0 5.75C0 5.33579 0.335786 5 0.75 5H11.75C12.1642 5 12.5 5.33579 12.5 5.75C12.5 6.16421 12.1642 6.5 11.75 6.5H0.75C0.335786 6.5 0 6.16421 0 5.75ZM0 10.75C0 10.3358 0.335786 10 0.75 10H5.75C6.16421 10 6.5 10.3358 6.5 10.75C6.5 11.1642 6.16421 11.5 5.75 11.5H0.75C0.335786 11.5 0 11.1642 0 10.75Z" fill="#6697E6"/>
</svg>
